# xmcd
#
# Track frame offsets:
#	150
#	37092
#	51499
#	100960
#	153468
#	181037
#	204257
#	233231
#	254948
#	273587
#	306397
#
# Disc length: 4800 seconds
#
# Revision: 0
# Processed by: cddbd v1.5.2PL0 Copyright (c) Steve Scherf et al.
# Submitted via: audiograbber 1.83.01
#
DISCID=a312be0b
DTITLE=Grateful Dead - 71-04-12 Civic Arena, Pittsburgh PA
DYEAR=1900
DGENRE=
TTITLE0=Truckin'
TTITLE1=Drums
TTITLE2=The Other One
TTITLE3=Wharf Rat
TTITLE4=Me and My Uncle
TTITLE5=Casey Jones
TTITLE6=Sugar Magnolia
TTITLE7=Deal
TTITLE8=Not Fade Away
TTITLE9=Going Down The Road Feeling Bad
TTITLE10=Turn On Your Lovelight
EXTD=
EXTT0=
EXTT1=
EXTT2=
EXTT3=
EXTT4=
EXTT5=
EXTT6=
EXTT7=
EXTT8=
EXTT9=
EXTT10=
PLAYORDER=
